<?xml version="1.0" standalone="no"?>
<!DOCTYPE svg PUBLIC "-//W3C//DTD SVG 20010904//EN"
 "http://www.w3.org/TR/2001/REC-SVG-20010904/DTD/svg10.dtd">
<svg version="1.0" xmlns="http://www.w3.org/2000/svg"
 width="1024.000000pt" height="576.000000pt" viewBox="0 0 1024.000000 576.000000"
 preserveAspectRatio="xMidYMid meet">

<g transform="translate(0.000000,576.000000) scale(0.100000,-0.100000)"
fill="#000000" stroke="none">
<path d="M2271 3639 c-127 -25 -195 -151 -142 -264 11 -22 40 -62 65 -88 75
-79 58 -133 -40 -125 l-44 3 0 -82 0 -82 48 -7 c150 -23 275 70 275 205 0 68
-10 90 -80 163 -46 49 -54 63 -51 90 3 29 7 33 35 36 17 2 46 -4 62 -13 l31
-16 0 86 c0 60 -4 87 -12 90 -33 10 -107 12 -147 4z"/>
<path d="M4210 3310 l0 -310 150 0 c130 0 156 3 190 20 63 32 85 72 85 158 0
71 -1 74 -36 106 l-35 33 37 35 c29 28 39 47 44 82 10 66 -24 131 -84 163 -41
21 -56 23 -198 23 l-153 0 0 -310z m252 163 c24 -22 24 -69 -1 -83 -11 -5 -33
-10 -50 -10 -31 0 -31 0 -31 55 l0 55 32 0 c17 0 40 -7 50 -17z m6 -235 c7 -7
12 -27 12 -45 0 -37 -21 -53 -69 -53 -31 0 -31 0 -31 55 l0 55 38 0 c21 0 43
-5 50 -12z"/>
<path d="M5550 3305 l0 -315 75 0 75 0 0 108 c1 124 0 125 78 -20 l47 -88 73
0 c39 0 72 3 72 8 0 4 -27 56 -60 115 -33 59 -60 113 -60 120 0 7 25 54 55
106 30 51 55 95 55 97 0 2 -35 4 -77 4 l-78 0 -37 -73 c-69 -134 -67 -136 -68
71 l0 182 -75 0 -75 0 0 -315z"/>
<path d="M6980 3613 c-44 -7 -99 -35 -115 -59 -8 -13 -18 -44 -22 -69 -3 -28
-11 -45 -19 -45 -10 0 -14 -17 -14 -65 0 -51 3 -65 15 -65 13 0 15 -24 15
-160 l0 -160 75 0 74 0 3 158 3 157 28 3 c26 3 27 5 27 68 0 62 -1 64 -26 64
-31 0 -28 23 4 28 20 3 22 9 22 78 0 81 2 79 -70 67z"/>
<path d="M8640 3540 l0 -80 75 0 76 0 -3 78 -3 77 -72 3 -73 3 0 -81z"/>
<path d="M7450 3300 l0 -310 75 0 75 0 0 310 0 310 -75 0 -75 0 0 -310z"/>
<path d="M8430 3525 l0 -84 -63 6 c-186 17 -314 -168 -232 -334 44 -88 142
-141 235 -127 25 3 84 6 133 5 l87 -2 0 310 0 311 -80 0 -80 0 0 -85z m-35
-250 c53 -52 18 -135 -56 -135 -29 0 -42 6 -58 26 -29 37 -26 70 8 105 36 36
73 37 106 4z"/>
<path d="M2547 3538 c-54 -32 -68 -45 -64 -59 3 -12 0 -19 -9 -19 -11 0 -14
-17 -14 -70 0 -56 3 -70 15 -70 13 0 15 -21 15 -131 l0 -131 29 -29 c26 -26
37 -29 89 -29 l60 0 16 72 c9 39 15 72 14 72 -2 1 -16 8 -33 16 -29 15 -30 19
-33 88 l-3 72 31 0 30 0 0 65 c0 63 -1 65 -25 65 -24 0 -25 2 -25 65 0 46 -4
65 -12 64 -7 0 -44 -19 -81 -41z"/>
<path d="M3230 3542 c-38 -22 -66 -46 -69 -58 -2 -10 -9 -23 -17 -27 -21 -12
-20 -137 1 -137 12 0 15 -19 15 -115 0 -176 22 -210 134 -203 l50 3 12 55 c19
78 17 84 -16 97 -30 11 -30 12 -30 87 l0 76 30 0 30 0 0 65 0 65 -30 0 -30 0
0 65 c0 36 -3 65 -7 65 -5 0 -37 -17 -73 -38z"/>
<path d="M2780 3394 l0 -57 71 6 c61 5 73 3 90 -14 10 -10 19 -23 19 -28 0 -5
-33 -8 -73 -8 -80 2 -112 -11 -144 -59 -38 -58 -9 -178 51 -215 34 -21 90 -25
133 -8 19 7 29 7 31 0 2 -6 31 -11 68 -11 l64 0 0 188 c0 154 -3 192 -16 210
-29 42 -65 52 -184 52 l-110 0 0 -56z m176 -209 c15 -23 15 -27 0 -50 -38 -57
-116 -12 -88 50 9 19 19 25 42 25 21 0 34 -8 46 -25z"/>
<path d="M3514 3426 c-77 -36 -126 -115 -127 -205 -1 -173 184 -277 364 -204
l39 15 0 74 0 73 -56 -30 c-54 -28 -106 -37 -131 -21 -8 5 28 37 102 90 63 46
115 88 115 94 0 6 -24 35 -52 63 -79 79 -160 95 -254 51z m139 -102 c6 -6
-115 -104 -129 -104 -14 0 7 65 28 87 21 22 85 33 101 17z"/>
<path d="M4738 3444 c-5 -4 -8 -29 -8 -56 l0 -48 78 0 c80 0 102 -9 102 -41 0
-14 -9 -16 -68 -11 -80 5 -123 -11 -147 -58 -35 -67 -5 -184 55 -215 35 -18
99 -20 136 -3 22 10 28 10 32 0 2 -8 26 -12 68 -12 l64 0 0 170 c0 256 -12
273 -195 278 -60 2 -113 0 -117 -4z m168 -259 c14 -21 15 -31 5 -51 -9 -21
-17 -25 -48 -22 -31 2 -39 8 -47 30 -20 57 57 93 90 43z"/>
<path d="M5153 3443 l-43 -4 0 -225 0 -224 75 0 75 0 0 140 c0 127 2 142 20
160 11 11 25 20 30 20 6 0 19 -9 30 -20 18 -18 20 -33 20 -155 l0 -135 76 0
75 0 -3 174 c-3 190 -7 202 -70 249 -35 26 -112 25 -149 -2 l-29 -22 0 26 c0
27 -1 27 -107 18z"/>
<path d="M6476 3435 c-85 -30 -148 -122 -148 -214 0 -92 46 -172 121 -210 118
-61 257 -16 315 101 95 190 -87 395 -288 323z m117 -146 c47 -21 60 -80 26
-123 -42 -53 -139 -21 -139 46 0 68 54 104 113 77z"/>
<path d="M7748 3432 l-68 -3 0 -224 0 -225 75 0 75 0 0 144 c0 136 1 146 21
160 22 15 48 11 61 -8 4 -6 8 -73 8 -148 l0 -138 75 0 75 0 0 170 c0 190 -6
216 -63 250 -44 27 -116 27 -151 -1 -26 -20 -26 -20 -26 0 0 26 -3 27 -82 23z"/>
<path d="M8880 3401 c0 -22 -3 -46 -6 -55 -5 -14 5 -16 69 -16 90 0 107 -5
107 -34 0 -20 -4 -21 -72 -18 -64 3 -77 1 -102 -19 -55 -44 -69 -114 -36 -186
33 -74 120 -104 190 -68 27 14 30 14 30 0 0 -12 13 -15 65 -15 l65 0 0 181 c0
152 -3 185 -17 210 -26 43 -78 59 -193 59 l-100 0 0 -39z m168 -213 c7 -7 12
-24 12 -38 0 -14 -5 -31 -12 -38 -7 -7 -24 -12 -38 -12 -14 0 -31 5 -38 12 -7
7 -12 24 -12 38 0 14 5 31 12 38 7 7 24 12 38 12 14 0 31 -5 38 -12z"/>
<path d="M8640 3210 l0 -220 75 0 75 0 0 220 0 220 -75 0 -75 0 0 -220z"/>
<path d="M2100 2775 c0 -13 401 -15 3545 -15 3144 0 3545 2 3545 15 0 13 -401
15 -3545 15 -3144 0 -3545 -2 -3545 -15z"/>
<path d="M2120 2526 c0 -11 14 -16 48 -18 l47 -3 3 -127 c2 -104 5 -128 17
-128 12 0 15 24 17 128 l3 127 48 3 c33 2 47 7 47 18 0 11 -21 14 -115 14 -94
0 -115 -3 -115 -14z"/>
<path d="M2430 2395 c0 -138 1 -145 20 -145 18 0 20 7 20 65 l0 65 75 0 75 0
0 -65 c0 -58 2 -65 20 -65 19 0 20 7 20 145 0 138 -1 145 -20 145 -18 0 -20
-7 -20 -60 l0 -60 -75 0 -75 0 0 60 c0 53 -2 60 -20 60 -19 0 -20 -7 -20 -145z"/>
<path d="M2770 2395 l0 -145 110 0 c91 0 110 3 110 15 0 12 -17 15 -90 15
l-90 0 0 50 0 50 80 0 c64 0 80 3 80 15 0 12 -16 15 -80 15 l-80 0 0 50 0 50
85 0 c69 0 85 3 85 15 0 12 -18 15 -105 15 l-105 0 0 -145z"/>
<path d="M3190 2395 l0 -145 85 0 c78 0 88 2 110 25 34 33 33 78 -1 110 -15
14 -22 25 -17 25 20 0 35 55 22 82 -16 36 -49 48 -129 48 l-70 0 0 -145z m140
102 c14 -7 26 -20 28 -30 6 -32 -17 -47 -74 -47 l-54 0 0 45 0 45 38 0 c20 0
48 -6 62 -13z m21 -127 c12 -7 19 -21 19 -40 0 -37 -23 -50 -89 -50 l-51 0 0
50 0 50 51 0 c28 0 59 -5 70 -10z"/>
<path d="M3535 2408 c-62 -163 -61 -158 -37 -158 13 0 23 12 32 40 l13 40 64
0 63 0 16 -40 c11 -27 22 -40 35 -40 10 0 19 2 19 5 0 3 -25 68 -56 145 -75
188 -81 188 -149 8z m94 32 c12 -30 21 -58 21 -62 0 -5 -21 -8 -46 -8 -33 0
-44 4 -41 13 3 6 13 36 23 64 10 29 19 52 20 50 1 -1 12 -27 23 -57z"/>
<path d="M3820 2395 c0 -121 2 -145 15 -145 12 0 15 22 17 113 l3 112 75 -112
c58 -87 80 -113 98 -113 22 0 22 1 22 145 0 138 -1 145 -20 145 -18 0 -20 -8
-22 -112 l-3 -112 -74 112 c-104 157 -111 155 -111 -33z"/>
<path d="M4150 2395 c0 -138 1 -145 20 -145 17 0 20 7 20 48 0 39 5 53 26 73
21 20 27 22 34 9 41 -72 88 -125 113 -128 28 -3 28 -3 -26 70 -29 40 -57 79
-61 86 -6 10 10 33 50 73 53 53 56 59 34 59 -17 0 -47 -22 -97 -72 l-73 -72 0
72 c0 65 -2 72 -20 72 -19 0 -20 -7 -20 -145z"/>
<path d="M4470 2395 l0 -145 105 0 c87 0 105 3 105 15 0 12 -17 15 -90 15
l-90 0 0 50 0 50 85 0 c68 0 85 3 85 15 0 11 -18 15 -82 17 l-83 3 0 45 0 45
88 3 c68 2 87 6 87 17 0 12 -20 15 -105 15 l-105 0 0 -145z"/>
<path d="M4780 2395 c0 -138 1 -145 20 -145 18 0 20 7 20 65 0 62 1 65 25 65
42 0 69 -19 105 -76 26 -40 41 -54 58 -54 l24 0 -23 38 c-12 20 -32 48 -45 61
l-22 24 31 21 c44 30 50 84 13 121 -23 23 -32 25 -116 25 l-90 0 0 -145z m164
105 c20 -7 26 -17 26 -39 0 -39 -23 -51 -94 -51 l-56 0 0 50 0 50 49 0 c27 0
61 -4 75 -10z"/>
<path d="M5200 2525 c0 -11 12 -15 45 -15 l45 0 0 -130 c0 -123 1 -130 20
-130 18 0 20 8 22 128 l3 127 48 3 c33 2 47 7 47 18 0 11 -21 14 -115 14 -96
0 -115 -3 -115 -15z"/>
<path d="M5554 2521 c-34 -21 -64 -83 -64 -134 0 -45 29 -98 69 -124 119 -80
259 67 194 204 -32 69 -131 96 -199 54z m127 -21 c56 -30 65 -148 15 -198 -36
-37 -96 -37 -132 0 -48 47 -42 157 10 193 24 17 79 20 107 5z"/>
<path d="M5980 2395 l0 -145 105 0 c87 0 105 3 105 15 0 12 -17 15 -90 15
l-90 0 0 50 0 50 80 0 c63 0 80 3 80 15 0 11 -18 15 -77 17 l-78 3 0 45 0 45
88 3 c68 2 87 6 87 17 0 12 -20 15 -105 15 l-105 0 0 -145z"/>
<path d="M6264 2523 c3 -10 28 -74 55 -143 42 -109 51 -125 71 -125 20 0 29
16 71 122 65 167 64 163 42 163 -14 0 -28 -27 -63 -125 -39 -108 -60 -149 -60
-116 0 5 -18 62 -41 125 -34 95 -45 116 -61 116 -14 0 -18 -5 -14 -17z"/>
<path d="M6600 2395 l0 -145 110 0 c91 0 110 3 110 15 0 12 -17 15 -90 15
l-90 0 0 50 0 50 80 0 c64 0 80 3 80 15 0 12 -16 15 -80 15 l-80 0 0 50 0 50
85 0 c69 0 85 3 85 15 0 12 -18 15 -105 15 l-105 0 0 -145z"/>
<path d="M6910 2395 c0 -138 1 -145 20 -145 18 0 20 7 20 65 l0 65 29 0 c47 0
60 -9 102 -71 26 -38 47 -59 59 -59 11 0 20 3 20 6 0 14 -73 114 -83 114 -7 0
3 9 21 20 40 25 55 59 41 98 -14 40 -46 52 -144 52 l-85 0 0 -145z m180 95
c24 -24 24 -29 4 -58 -13 -19 -24 -22 -80 -22 l-64 0 0 50 0 50 60 0 c47 0 64
-4 80 -20z"/>
<path d="M7265 2458 c52 -78 55 -86 55 -145 0 -56 2 -63 20 -63 18 0 20 7 20
60 0 57 3 65 55 139 30 43 55 81 55 85 0 3 -9 6 -19 6 -13 0 -33 -22 -60 -65
-23 -36 -46 -63 -51 -60 -5 3 -26 33 -46 65 -28 46 -42 60 -61 60 -22 0 -20
-4 32 -82z"/>
<path d="M7670 2395 c0 -122 2 -145 15 -145 13 0 15 23 15 145 0 122 -2 145
-15 145 -13 0 -15 -23 -15 -145z"/>
<path d="M7810 2395 c0 -138 1 -145 20 -145 19 0 20 7 20 112 l0 113 75 -113
c54 -80 81 -112 95 -112 19 0 20 7 20 145 0 122 -2 145 -15 145 -12 0 -15 -19
-15 -110 0 -60 -3 -110 -7 -110 -5 0 -41 50 -81 110 -52 79 -78 110 -92 110
-19 0 -20 -7 -20 -145z"/>
<path d="M8150 2395 l0 -145 75 0 c97 0 128 15 150 75 31 80 6 170 -56 202
-13 7 -57 13 -96 13 l-73 0 0 -145z m175 84 c16 -16 20 -33 20 -85 0 -60 -3
-68 -28 -90 -22 -18 -40 -24 -78 -24 l-49 0 0 116 0 117 58 -7 c37 -4 64 -14
77 -27z"/>
<path d="M8490 2395 c0 -138 1 -145 20 -145 19 0 20 7 20 145 0 138 -1 145
-20 145 -19 0 -20 -7 -20 -145z"/>
<path d="M8717 2533 c-6 -10 -107 -273 -107 -279 0 -2 9 -4 20 -4 14 0 22 11
31 40 l12 40 64 0 65 0 15 -40 c11 -27 22 -40 35 -40 10 0 18 3 18 8 0 4 -25
69 -56 145 -43 104 -61 137 -75 137 -10 0 -20 -3 -22 -7z m47 -101 l25 -62
-49 0 -48 0 21 65 c11 35 22 63 24 61 2 -2 14 -31 27 -64z"/>
<path d="M8950 2395 c0 -138 1 -145 20 -145 18 0 20 8 22 107 l3 107 70 -107
c54 -83 75 -107 93 -107 22 0 22 1 22 145 0 138 -1 145 -20 145 -18 0 -20 -8
-22 -112 l-3 -112 -74 112 c-104 157 -111 155 -111 -33z"/>
</g>
</svg>
